<?xml version="1.0" encoding="utf-8"?>
<!-- Generator: Adobe Illustrator 23.0.2, SVG Export Plug-In . SVG Version: 6.00 Build 0)  -->
<svg version="1.1" id="Layer_1" xmlns="http://www.w3.org/2000/svg" xmlns:xlink="http://www.w3.org/1999/xlink"
	 viewBox="0 0 284.4632 208.5387" enable-background="new 0 0 284.4632 208.5387" xml:space="preserve">
<g>
	<path d="M49.6729,59.5041H97.905V11.272H49.6729V59.5041z M53.8063,15.4062h39.9658v39.9644H53.8063V15.4062z"/>
	<path d="M64.0281,45.1496h19.5223V25.6273H64.0281V45.1496z M65.4061,27.0053h16.7655v16.7662H65.4061V27.0053z"/>
	<path d="M73.7889,33.5121c0.7455,0,1.3505-1.2758,1.3505-2.8517c0-1.5752-0.6049-2.8517-1.3505-2.8517
		c-0.7456,0-1.3512,1.2765-1.3512,2.8517C72.4377,32.2363,73.0433,33.5121,73.7889,33.5121z"/>
	<path d="M73.7889,37.2647c-0.7456,0-1.3512,1.2765-1.3512,2.851c0,1.576,0.6056,2.8517,1.3512,2.8517
		c0.7455,0,1.3505-1.2758,1.3505-2.8517C75.1393,38.5412,74.5344,37.2647,73.7889,37.2647z"/>
	<path d="M72.462,34.0619c0.5275-0.5269,0.0525-1.8578-1.0618-2.9722c-1.113-1.1136-2.4439-1.588-2.9714-1.0604
		c-0.5269,0.5269-0.0525,1.8572,1.0611,2.9714C70.6041,34.1143,71.9344,34.5887,72.462,34.0619z"/>
	<path d="M75.1151,36.715c-0.5269,0.5275-0.0532,1.8572,1.0612,2.9714c1.1143,1.1143,2.4452,1.5894,2.9714,1.0612
		c0.5282-0.5269,0.0532-1.8578-1.0611-2.9715C76.973,36.6625,75.6426,36.1875,75.1151,36.715z"/>
	<path d="M71.9129,35.3888c0.0007-0.7462-1.2758-1.3511-2.8517-1.3511c-1.5759,0-2.851,0.6049-2.851,1.3511
		c0,0.7455,1.2765,1.3505,2.851,1.3505C70.6371,36.7393,71.9136,36.1343,71.9129,35.3888z"/>
	<path d="M78.5165,34.0376c-1.5739,0-2.851,0.6049-2.851,1.3511c0,0.7455,1.2758,1.3505,2.851,1.3505
		c1.5759,0,2.853-0.605,2.8523-1.3512C81.3695,34.6425,80.0924,34.0376,78.5165,34.0376z"/>
	<path d="M72.462,36.7163c-0.5275-0.5289-1.8578-0.0538-2.9722,1.0605c-1.115,1.1143-1.588,2.4439-1.0605,2.9714
		c0.5269,0.5262,1.8578,0.0518,2.9708-1.0618C72.5145,38.5722,72.9895,37.2419,72.462,36.7163z"/>
	<path d="M75.1158,34.0619c0.5269,0.5275,1.8565,0.0532,2.9708-1.0605c1.1143-1.1143,1.5893-2.4459,1.0611-2.9721
		c-0.5262-0.5282-1.8572-0.0532-2.9714,1.0611C75.064,32.204,74.5883,33.5343,75.1158,34.0619z"/>
	<path d="M278.4632,143.0966h-21.8445c-1.124,0.9462-2.3474,1.8048-3.6743,2.5503c-8.8782,4.9875-19.6181,3.6454-26.9888-2.5503
		h-1.9208c-1.6315,4.4205-3.8953,8.519-7.7334,11.0652c-8.7007,5.7725-15.4758,3.2659-17.9844,1.9205
		c-2.3082-1.2379-4.6824-3.489-3.7781-5.76c0.4258-1.0709,1.6882-2.1126,3.8429-1.5267c1.6364,0.4449,2.9816,0.292,4.2335-0.4822
		c1.9842-1.2264,4.7542-4.7136,6.6858-14.3613c0.9789-4.8876,2.4622-8.6859,4.2617-11.648
		c-2.088-2.9006-4.7853-5.1178-8.2738-5.8361c-1.4282-0.2943-2.7563-0.4196-4.0378-0.4355
		c0.0154-0.0569,0.0415-0.1079,0.0555-0.1656c3.4746-14.3345-18.2515-28.6021-29.356-34.8467l1.7104-32.2433
		c-2.6799-2.9767-4.5801-6.5876-5.5056-10.4803c-4.8577-3.3496-11.7101-3.8388-19.2773,0.7231
		c-11.7786,7.0985-6.3112,20.8132-41.1143,35.583c-10.1102,4.2906-11.9023,11.0278-9.8657,17.5449
		c0.116,1.0305,0.3887,2.0603,0.8449,3.0543l8.676,18.9014c-13.6038,0.091-47.161-0.0834-47.5627-0.0854
		c-0.7319-0.0498-1.3696,0.5308-1.4883,1.2593c-0.0668,0.4108-0.5648,3.5023-1.1761,7.9243h-5.8234c-5.5229,0-10,4.4771-10,10
		c0,5.0561,3.7564,9.2252,8.6288,9.8951H6c-3.3,0-6,2.7-6,6v5.179c0,3.3,2.7,6,6,6h14.7791v48.2632h9.0947v-48.2632h25.4507
		c0.0067,0.0265,0.0117,0.0579,0.0186,0.0841c0.9438,3.6162,4.2251,4.7686,8.5625,4.7686c3.8789,0,8.6025-0.9229,13.2505-1.8301
		c7.1968-1.4053,14.6357-2.8584,18.1558-0.9834c4.2754,2.2793,11.4683,0.9258,19.7974-0.6436
		c0.7554-0.1423,1.5197-0.2851,2.2868-0.4269l-2.489,36.547c-0.375,5.5107,3.7876,10.2813,9.2979,10.6563
		c0.231,0.0156,0.4609,0.0234,0.6895,0.0234c5.2129,0,9.6069-4.042,9.9668-9.3203l2.6232-38.5193
		c1.4014,0.5303,2.6082,1.2872,3.5364,2.3553c1.8579,2.1357,3.5156,1.7412,4.3389,1.3145c1.1039-0.5705,1.9833-1.9986,2.6525-4.0255
		h106.5775v48.2632h9.0947v-48.2632h14.7788c3.3,0,6-2.7,6-6v-5.179C284.4632,145.7966,281.7632,143.0966,278.4632,143.0966z
		 M143.2855,161.0179c-5.7559-6.6211-17.9609-4.3223-28.7319-2.2949c-7.1216,1.3418-14.4844,2.7266-17.8306,0.9453
		c-4.4595-2.3779-12.0776-0.8906-20.1416,0.6855c-8.4858,1.6572-17.2598,3.3711-18.3359-0.752
		c-2.1914-8.3945,1.9136-36.2856,2.8848-42.5776c7.8286,0.04,47.104,0.2227,51.6719-0.0083
		c2.3848-0.1211,3.3496-1.4678,4.2007-2.6563c1.4297-1.9966,3.3882-4.7314,15.3799-4.7314c8.0044,0,11.5361,13.9341,12.6831,19.9253
		c3.0249,15.7983,1.1235,31.2065-1.0337,32.0796C144.0297,161.6331,143.7704,161.5764,143.2855,161.0179z M146.8617,82.2076
		l1.9871-28.1168c0.3415-4.8403,4.5576-8.5002,9.3975-8.1583c0.7145,0.0507,1.4196,0.1873,2.0959,0.4063
		c3.8557,1.2483,6.3486,4.9462,6.0621,8.9924l-2.217,31.3778c3.0939,1.3217,7.166,3.1761,11.1744,5.3415
		c5.5399,2.993,22.4006,12.1017,17.7679,25.2983c-1.5668,4.4683-6.5066,6.9174-11.0108,5.4591l-0.2017-0.0681
		c-2.0562-0.7216-3.6871-2.1483-4.7087-3.9228c-6.3883-0.2584-14.6221-1.6749-25.9858-5.4781
		c-3.8264-1.2806-7.0463-1.7264-9.7434-1.5515c-2.5559-3.3971-5.6107-5.1592-9.0963-5.1592c-2.4115,0-4.4695,0.1161-6.2424,0.3175
		l-1.5311-3.3356C129.1395,97.8266,136.0274,90.0968,146.8617,82.2076z"/>
	<path d="M197.7777,151.0151c-4.3834-1.1923,4.5316,9.6683,17.2528,1.2299c3.9938-2.6492,6.119-7.4373,7.7006-12.4503
		c-0.8052-1.004-1.5426-2.0827-2.1932-3.2408c-2.8848-5.1352-3.647-10.8927-2.5831-16.2621
		c-2.7649,2.978-5.0634,7.4464-6.3984,14.1121C208.263,150.8486,202.161,152.2074,197.7777,151.0151z"/>
	<ellipse transform="matrix(0.6066 -0.795 0.795 0.6066 -4.3722 240.9586)" cx="241.2875" cy="124.8971" rx="21.5" ry="21.5"/>
	<path d="M152.725,98.5879c11.9235,4.3594,23.8468,11.1033,25.7438,14.489c-0.6774,3.1544,1.0809,6.3948,4.2056,7.4914
		c0.0507,0.0178,0.1016,0.035,0.1527,0.0515c3.3456,1.0832,6.962-0.696,8.1325-4.0324
		c3.9819-11.3446-11.5789-19.7511-16.6915-22.5132c-4.5544-2.4604-9.1964-4.5171-12.4911-5.8843l2.3331-33.0206
		c0.2531-3.5813-2.4434-6.6887-6.0257-6.9423c-3.5806-0.2529-6.6886,2.4449-6.9417,6.0259l-2.6695,37.772
		C148.2692,94.916,150.0027,97.5926,152.725,98.5879z"/>
	<path d="M193.9628,9.177c-0.3578-1.6564-0.8732-3.1976-1.5301-4.5132c-3.4593-6.928-9.5098-4.9934-16.4378-1.5341
		c-6.928,3.4594-12.1099,7.1334-8.6506,14.0614c0.7241,1.4501,1.7724,2.9267,3.0362,4.3252
		C174.9792,13.0003,184.3727,8.0999,193.9628,9.177z"/>
	<ellipse transform="matrix(0.8905 -0.4549 0.4549 0.8905 6.0076 90.6278)" cx="191.3133" cy="32.831" rx="21.5" ry="21.5"/>
</g>
</svg>
