<?xml version="1.0" encoding="utf-8"?>
<!-- Generator: Adobe Illustrator 24.3.0, SVG Export Plug-In . SVG Version: 6.00 Build 0)  -->
<svg version="1.1" id="Layer_1" xmlns="http://www.w3.org/2000/svg" xmlns:xlink="http://www.w3.org/1999/xlink" x="0px" y="0px"
	 viewBox="0 0 256 256" enable-background="new 0 0 256 256" xml:space="preserve">
<path d="M250.4,190l-0.3-0.2c-0.5-0.4-1-0.7-1.6-1l-33.7-16.2c-5.2-2.5-10.7-4.1-16.4-4.9l-14.9-2l-34.8-29.6
	c-1.1-3.8-3.8-7.3-6.2-10c-2.8-3.1-11.9-11.2-19.9-18.4c-4.5-4-8.3-7.5-10.2-9.2c-4.3-4.1-12.9-19.1-15.2-23.3
	c4.4-6.2,7.5-13.1,9.4-20.5c0.7-2.8-0.7-5.7-3.3-6.9l-2.2-1c-1.3-0.6-2.7-0.7-4.1-0.4L83.9,50c-5.5,1.5-10.5,4.5-14.3,8.8
	c-0.6,0.7-1.1,1.5-1.5,2.3l-1.8,1c-1.9,1.1-3.8,2.4-5.6,3.7l-2.9-3.1c1.2-1.6,2.2-3.3,2.4-4.6c0.6-5.5-3.6-11.2-5.2-13.1l0.3-3.9
	c0.1-1-0.6-1.9-1.6-2.1l-6.1-1.2c-1.5-1-7.3-4.7-11.3-6.2c-4-1.5-9.6-0.9-13.3,1.5C17.9,36.5,14,42.3,12.8,48
	C8,48.3,3.7,51.7,2.8,56.5C1.6,62.5,5.3,68.2,11,69.4c0.8,0.2,1.7,0.3,2.5,0.3c2.4,0,4.6-0.7,6.4-2c1,0.9,2.1,1.7,3.2,2.3
	c3.9,2.1,7.9,3.1,10.6,3.7c1.8,0.4,3.7,0.7,5.6,0.7c1.6,0,3.1-0.2,4.5-0.8c0.4-0.2,0.8-0.4,1.3-0.6l3.7,3.7
	c-2.5,2.9-4.8,6.1-6.9,9.3c-0.9,0.2-1.7,0.5-2.6,1c-2.2,1.3-4.1,3.5-5.3,6.2c-2.1,4.6-1.9,9.5-1.7,13.9c0.2,4.4,0.5,9,1.1,15
	c0.3,3.3,1.1,6.5,2.1,9.6c-0.7,2.1-2.8,9.1-2.4,16.1c0.4,5.6,1,30.2,1.3,44.4c0.1,5.7-0.7,11.4-2.4,16.9L9,216.6
	c-1.8,0.6-3,2.2-3,4.1c0,2.4,1.9,4.3,4.3,4.3h31.3c1.1,0,2.3-0.2,3.4-0.6c2.9-1,5.2-3.3,6.2-6.2c0.7-2.1,0.8-4.3,0.2-6.4l-0.8-2.5
	c-0.6-2-0.7-4.1-0.3-6.1c2.1-10.1,5.7-27.9,5.7-33.2v-17.7l19.6,0.7c2.1,0.2,31.9,3.2,47,3.7l23.5,15.7c0.9,0.6,1.8,1.1,2.8,1.6
	l23.7,11.9c3,1.5,6.3,2.5,9.7,2.8l29.1,2.6l18,4.5c1.8,0.5,3.3,1.8,4.1,3.5c0.6,1.4,0.6,2.9,0.1,4.3l-2.8,8.2l-7.3,1
	c-2.1,0.3-3.7,2.1-3.7,4.2c0,2.4,1.9,4.3,4.3,4.3h12.5c0.6,0,1.2-0.3,1.6-0.8l8.5-11.8c0.2-0.3,0.5-0.7,0.9-0.9l3.4-2.9
	c1.2-1,2.1-2.3,2.7-3.8C255,197,253.7,192.5,250.4,190z M115.5,106.8l-27.3,17c-0.7,0.1-1.5,0.2-2.3,0.3c-0.3-0.1-0.6-0.3-1-0.4
	l25-21.9C111.4,103.1,113.3,104.8,115.5,106.8z M77.7,101.8c0.2-0.3,0.3-0.7,0.3-1v-2.4l2-1.2c0.2-0.1,0.4-0.3,0.6-0.5l14-18
	c2.7,4.8,8.5,14.8,12.8,20.2l-26.3,23c-5.7-2.8-9.5-5.5-11.2-6.9L77.7,101.8z M67.8,118.5c2,1.5,5.6,4,11,6.7
	c-6.9,1-13.6,2-18.1,2.6C63.3,125,65.7,121.8,67.8,118.5z M68.3,65.5l1.3-0.8l10.6,6c0,0,0,0.1-0.1,0.1l-6.4,13.5l-12.4-4.9l1-0.9
	c1.4-1.3,2.3-3.1,2.4-5.1c0.1-1.7-0.4-3.4-1.5-4.7C64.9,67.6,66.6,66.5,68.3,65.5z M11.8,65.5c-3.6-0.7-5.9-4.4-5.2-8.1
	c0.6-2.8,3-4.9,5.8-5.3c0.2,4.4,2,9,4.7,12.6C15.8,65.6,13.8,65.9,11.8,65.5z M16.6,49.8c0.6-5.1,4-10.3,8.7-13.4
	c1.6-1.1,4-1.7,6.2-1.7c1.2,0,2.4,0.2,3.5,0.6c-1.5,5.9-5.9,24-5.8,32.8c-1.4-0.5-2.8-1.1-4-1.8C19.8,63.6,15.8,55.9,16.6,49.8z
	 M42.3,69.8c-2.2,0.9-5,0.5-7.8-0.1c-0.5-0.1-1-0.2-1.4-0.3c-0.6-5.4,2.8-21.4,5.5-32.3c3.5,1.9,7.1,4.3,7.2,4.3
	c0.2,0.1,0.5,0.2,0.7,0.3l4.7,0.9l-0.2,2.9c0,0.6,0.1,1.1,0.5,1.5c1.5,1.6,5.2,6.6,4.8,10.6c-0.2,1.4-4.6,6.4-6.8,8.2
	C47.4,67.5,44.8,68.7,42.3,69.8z M51.9,68.9c0,0,1.5-1.4,3.2-3.2l4.8,5.2c0.6,0.6,0.9,1.5,0.9,2.4c0,0.9-0.4,1.7-1.1,2.3l-2.4,2.2
	l-1.3-0.5c-0.8-0.3-1.6-0.4-2.4-0.2c0.2-0.7,0.1-1.5-0.5-2L48.9,71C50,70.4,51,69.7,51.9,68.9z M50.1,81.4c0,1,0.4,2,1.1,2.8
	l13.1,14.1l-5.4,6.4l-6.3-5.3l-7-11.7C47,85.6,48.5,83.4,50.1,81.4z M51.7,112l-0.1-1.6c-0.2-2.1,0-4.1,0.5-6.2l4.2,3.5l-0.5,0.6
	C54.3,109.7,52.9,110.9,51.7,112z M37.8,94.8c0.6-1.4,1.8-3.3,3.7-4.4c0.3-0.2,0.5-0.3,0.8-0.4l6.6,11c-1,3.1-1.4,6.4-1.2,9.7l0.4,5
	c-5.2,5.4-6.1,8.1-6.2,8.9l3.9,0.7c0.4-2.2,7-9,12.8-14.1c0.1-0.1,0.2-0.1,0.2-0.2l9.8-11.5c0.7-0.8,0.6-1.9-0.1-2.7L54.2,81.4
	c-0.1-0.1-0.1-0.2,0-0.3c0.1-0.1,0.2-0.1,0.3-0.1L74,88.9c1,0.4,2.1,0,2.6-1l7.2-15.2c2.5-5.3,6.2-10.1,10.7-13.8L92,55.7
	c-3.9,3.2-7.3,7.2-9.9,11.6l-9.8-5.6c0.1-0.1,0.1-0.2,0.2-0.3c3.3-3.7,7.6-6.3,12.4-7.6l13.2-3.5c0.5-0.1,0.9-0.1,1.4,0.1l2.2,1
	c0.9,0.4,1.3,1.4,1.1,2.3c-2,7.9-5.6,15.1-10.6,21.6L77.7,94l-1.5,0.9l-11.7-9.3l-2.5,3.1L74,98.2v2l-8.4,14.3
	c-2.3,3.8-4.9,7.5-7.9,10.8l-11,12.1c-0.6,0.6-1.4,0.9-2.3,0.9c-0.9-0.1-1.6-0.6-2-1.3c-0.5-0.8-0.9-1.6-1.3-2.5
	c-1.9-3.9-3-8.2-3.5-12.7c-0.6-5.9-1-10.5-1.1-14.8C36.3,103,36.1,98.6,37.8,94.8z M46.4,202.4c-0.6,2.7-0.4,5.4,0.4,8l0.8,2.5
	c0.4,1.3,0.4,2.7-0.1,3.9c-0.6,1.8-2,3.1-3.8,3.8c-0.7,0.2-1.3,0.3-2,0.3H10.3c-0.2,0-0.3-0.1-0.3-0.3c0-0.1,0.1-0.3,0.2-0.3
	l24.1-7.7c0.6-0.2,1.1-0.7,1.3-1.3c2.1-6.2,3-12.7,2.9-19.2c-0.2-10-0.6-25.3-0.9-35.4L52,157v13C52,173.5,49.9,185.7,46.4,202.4z
	 M75.8,149L56,148.3v-5.8h-4V153l-14.5-0.2c-0.1-2.3-0.2-4.1-0.2-5.2c-0.2-3.6,0.3-7.2,0.9-10c0.2,0.4,0.4,0.8,0.7,1.2
	c1.1,1.9,3,3.1,5.1,3.4c0.2,0,0.5,0,0.7,0c1.9,0,3.7-0.8,4.9-2.2l6.9-7.6c5.6-0.8,42.6-6.3,49.2-6.8c6.8-0.5,15.7,2.1,15.8,2.2
	l1.1-3.8c-0.4-0.1-9.7-2.8-17.2-2.3c-1.4,0.1-4.1,0.4-7.5,0.8l20.8-13c0.4,0.4,0.9,0.8,1.3,1.2c7.5,6.7,16.9,15.1,19.6,18
	c5,5.6,6.7,9.9,5.2,13.4c-2.1,4.9-6.1,10.5-18.4,10.5c-13.2,0-49.9-3.7-50.3-3.7C75.9,149,75.9,149,75.8,149z M174.4,182.3
	l-23.7-11.9c-0.8-0.4-1.6-0.9-2.4-1.4l-18.6-12.4c6.6-0.5,14.4-3,18.6-12.8c0.3-0.7,0.5-1.4,0.7-2.1l32.4,27.5
	c0.3,0.2,0.6,0.4,1,0.5l4.7,0.6l-2.9,14.5l-1.5-0.1C179.8,184.4,177,183.6,174.4,182.3z M249.8,199.5c-0.3,0.8-0.8,1.6-1.5,2.2
	l-3.4,2.9c-0.6,0.5-1.1,1-1.5,1.6l-7.9,11H224c-0.2,0-0.3-0.1-0.3-0.3c0-0.1,0.1-0.3,0.2-0.3l8.5-1.2c0.7-0.1,1.4-0.6,1.6-1.3
	l3.2-9.3c0.8-2.3,0.7-4.9-0.2-7.2c-1.2-2.9-3.7-5-6.8-5.8l-18.1-4.5c-0.1,0-0.2,0-0.3-0.1l-23.7-2.1l2.8-14.4l6.9,0.9
	c5.3,0.7,10.4,2.2,15.2,4.6l33.7,16.2c0.3,0.2,0.6,0.3,0.9,0.6l0.3,0.2C249.9,194.7,250.7,197.3,249.8,199.5z"/>
</svg>
